<svg xmlns="http://www.w3.org/2000/svg" style="display: none;">
  
    <symbol id="ngx-dm-table-icon-pin" viewBox="0 0 512 512">
      <path d="m224 352l32 160 32-160c-10 1-21 2-32 2-10 0-22-1-32-2z m127-149c-16-9-31-30-31-43l0-32c0-11 6-19 12-26 7-6 12-14 12-22 0-27-31-48-88-48-57 0-87 21-87 48 0 8 4 16 12 22 5 7 11 15 11 26l0 32c0 13-14 34-31 43-19 9-35 27-35 44 0 37 51 74 130 74 80 0 130-37 130-74 0-17-15-34-35-44z"/>
    </symbol>
  
    <symbol id="ngx-dm-table-icon-drag-handle" viewBox="0 0 512 512">
      <path d="m218 449c0 35-29 63-64 63c-35 0-64-28-64-63c0-36 29-64 64-64c35 0 64 28 64 64z m0-193c0 35-29 64-64 64c-35 0-64-29-64-64c0-35 29-64 64-64c35 0 64 29 64 64z m0-193c0 36-29 64-64 64c-35 0-64-28-64-64c0-35 29-63 64-63c35 0 64 28 64 63z m204 386c0 35-29 63-64 63c-35 0-64-28-64-63c0-36 29-64 64-64c35 0 64 28 64 64z m0-193c0 35-29 64-64 64c-35 0-64-29-64-64c0-35 29-64 64-64c35 0 64 29 64 64z m0-193c0 36-29 64-64 64c-35 0-64-28-64-64c0-35 29-63 64-63c35 0 64 28 64 63z"/>
    </symbol>
  
    <symbol id="ngx-dm-table-icon-sort-asc" viewBox="0 0 512 512">
      <path d="m374 154c0 0-118 204-118 204c0 0-118-204-118-204c0 0 236 0 236 0"/>
    </symbol>
  
    <symbol id="ngx-dm-table-icon-sort-desc" viewBox="0 0 512 512">
      <path d="m138 358c0 0 118-204 118-204c0 0 118 204 118 204c0 0-236 0-236 0"/>
    </symbol>
  
    <symbol id="ngx-dm-table-icon-sort-amount-asc" viewBox="0 0 512 512">
      <path d="m210 411c0 3-1 5-3 7l-91 91c-2 2-4 3-6 3-3 0-5-1-7-3l-91-91c-3-3-4-6-2-10 1-4 4-6 8-6l55 0 0-393c0-3 1-5 3-6 1-2 4-3 6-3l55 0c3 0 5 1 7 3 1 1 2 3 2 6l0 393 55 0c3 0 5 1 7 3 1 2 2 4 2 6z m302 37l0 55c0 3-1 5-3 6-1 2-3 3-6 3l-238 0c-3 0-5-1-6-3-2-1-3-3-3-6l0-55c0-3 1-5 3-7 1-1 3-2 6-2l238 0c3 0 5 1 6 2 2 2 3 4 3 7z m-55-146l0 55c0 2-1 4-2 6-2 2-4 3-7 3l-183 0c-3 0-5-1-6-3-2-2-3-4-3-6l0-55c0-3 1-5 3-7 1-2 3-2 6-2l183 0c3 0 5 0 7 2 1 2 2 4 2 7z m-55-147l0 55c0 3-1 5-2 7-2 2-4 2-7 2l-128 0c-3 0-5 0-6-2-2-2-3-4-3-7l0-55c0-2 1-4 3-6 1-2 3-3 6-3l128 0c3 0 5 1 7 3 1 2 2 4 2 6z m-55-146l0 55c0 3 0 5-2 7-2 1-4 2-7 2l-73 0c-3 0-5-1-6-2-2-2-3-4-3-7l0-55c0-3 1-5 3-6 1-2 3-3 6-3l73 0c3 0 5 1 7 3 2 1 2 3 2 6z"/>
    </symbol>
  
    <symbol id="ngx-dm-table-icon-sort-amount-desc" viewBox="0 0 512 512">
      <path d="m347 448l0 55c0 3 0 5-2 6-2 2-4 3-7 3l-73 0c-3 0-5-1-6-3-2-1-3-3-3-6l0-55c0-3 1-5 3-7 1-1 3-2 6-2l73 0c3 0 5 1 7 2 2 2 2 4 2 7z m-137-37c0 3-1 5-3 7l-91 91c-2 2-4 3-6 3-3 0-5-1-7-3l-91-91c-3-3-4-6-2-10 1-4 4-6 8-6l55 0 0-393c0-3 1-5 3-6 1-2 4-3 6-3l55 0c3 0 5 1 7 3 1 1 2 3 2 6l0 393 55 0c3 0 5 1 7 3 1 2 2 4 2 6z m192-109l0 55c0 2-1 4-2 6-2 2-4 3-7 3l-128 0c-3 0-5-1-6-3-2-2-3-4-3-6l0-55c0-3 1-5 3-7 1-2 3-2 6-2l128 0c3 0 5 0 7 2 1 2 2 4 2 7z m55-147l0 55c0 3-1 5-2 7-2 2-4 2-7 2l-183 0c-3 0-5 0-6-2-2-2-3-4-3-7l0-55c0-2 1-4 3-6 1-2 3-3 6-3l183 0c3 0 5 1 7 3 1 2 2 4 2 6z m55-146l0 55c0 3-1 5-3 7-1 1-3 2-6 2l-238 0c-3 0-5-1-6-2-2-2-3-4-3-7l0-55c0-3 1-5 3-6 1-2 3-3 6-3l238 0c3 0 5 1 6 3 2 1 3 3 3 6z"/>
    </symbol>
  
</svg>
