<svg xmlns="http://www.w3.org/2000/svg" style="display: none;">
  
    <symbol id="ngx-dm-table-icon-pin" viewBox="0 0 512 512">
      <path d="m224 352l32 160 32-160c-10 1-21 2-32 2-10 0-22-1-32-2z m127-149c-16-9-31-30-31-43l0-32c0-11 6-19 12-26 7-6 12-14 12-22 0-27-31-48-88-48-57 0-87 21-87 48 0 8 4 16 12 22 5 7 11 15 11 26l0 32c0 13-14 34-31 43-19 9-35 27-35 44 0 37 51 74 130 74 80 0 130-37 130-74 0-17-15-34-35-44z"/>
    </symbol>
  
    <symbol id="ngx-dm-table-icon-drag-handle" viewBox="0 0 512 512">
      <path d="m218 449c0 35-29 63-64 63c-35 0-64-28-64-63c0-36 29-64 64-64c35 0 64 28 64 64z m0-193c0 35-29 64-64 64c-35 0-64-29-64-64c0-35 29-64 64-64c35 0 64 29 64 64z m0-193c0 36-29 64-64 64c-35 0-64-28-64-64c0-35 29-63 64-63c35 0 64 28 64 63z m204 386c0 35-29 63-64 63c-35 0-64-28-64-63c0-36 29-64 64-64c35 0 64 28 64 64z m0-193c0 35-29 64-64 64c-35 0-64-29-64-64c0-35 29-64 64-64c35 0 64 29 64 64z m0-193c0 36-29 64-64 64c-35 0-64-28-64-64c0-35 29-63 64-63c35 0 64 28 64 63z"/>
    </symbol>
  
    <symbol id="ngx-dm-table-icon-sort-asc" viewBox="0 0 512 512">
      <path d="m374 154c0 0-118 204-118 204c0 0-118-204-118-204c0 0 236 0 236 0"/>
    </symbol>
  
    <symbol id="ngx-dm-table-icon-sort-desc" viewBox="0 0 512 512">
      <path d="m138 358c0 0 118-204 118-204c0 0 118 204 118 204c0 0-236 0-236 0"/>
    </symbol>
  
</svg>
